<svg xmlns="http://www.w3.org/2000/svg" xmlns:xlink="http://www.w3.org/1999/xlink" width="500" zoomAndPan="magnify" viewBox="0 0 375 374.999991" height="500" preserveAspectRatio="xMidYMid meet" version="1.0"><defs><clipPath id="f396aa617f"><path d="M 131.25 131.25 L 243.75 131.25 L 243.75 243.75 L 131.25 243.75 Z M 131.25 131.25 " clip-rule="nonzero"/></clipPath><clipPath id="95bb88e6f5"><path d="M 187.5 131.25 C 156.433594 131.25 131.25 156.433594 131.25 187.5 C 131.25 218.566406 156.433594 243.75 187.5 243.75 C 218.566406 243.75 243.75 218.566406 243.75 187.5 C 243.75 156.433594 218.566406 131.25 187.5 131.25 Z M 187.5 131.25 " clip-rule="nonzero"/></clipPath></defs><g clip-path="url(#f396aa617f)"><g clip-path="url(#95bb88e6f5)"><path fill="#ffffff" d="M 131.25 131.25 L 243.75 131.25 L 243.75 243.75 L 131.25 243.75 Z M 131.25 131.25 " fill-opacity="1" fill-rule="nonzero"/></g></g><path fill="#000000" d="M 252.746094 59.050781 C 152.601562 0.132812 25.351562 72.09375 24.242188 188.265625 C 23.160156 301.710938 143.148438 374.984375 243.066406 325.050781 L 133.972656 164.453125 L 133.972656 263.859375 C 133.972656 274.875 112.910156 274.875 112.910156 263.859375 L 112.910156 130.597656 C 112.910156 121.851562 129.140625 121.136719 133.742188 128.734375 L 258.089844 316.488281 C 351.5 256.285156 350.238281 116.402344 252.746094 59.050781 Z M 238.699219 247.179688 L 217.566406 214.886719 L 217.566406 126.476562 C 217.566406 118.230469 238.699219 118.230469 238.699219 126.476562 Z M 238.699219 247.179688 " fill-opacity="1" fill-rule="nonzero"/></svg>