<svg xmlns="http://www.w3.org/2000/svg" xmlns:xlink="http://www.w3.org/1999/xlink" width="500" zoomAndPan="magnify" viewBox="0 0 375 374.999991" height="500" preserveAspectRatio="xMidYMid meet" version="1.0"><defs><clipPath id="390cb8aade"><path d="M 131.25 131.25 L 243.75 131.25 L 243.75 243.75 L 131.25 243.75 Z M 131.25 131.25 " clip-rule="nonzero"/></clipPath><clipPath id="44d8d5bc89"><path d="M 187.5 131.25 C 156.433594 131.25 131.25 156.433594 131.25 187.5 C 131.25 218.566406 156.433594 243.75 187.5 243.75 C 218.566406 243.75 243.75 218.566406 243.75 187.5 C 243.75 156.433594 218.566406 131.25 187.5 131.25 Z M 187.5 131.25 " clip-rule="nonzero"/></clipPath><clipPath id="bde5399578"><path d="M 12.273438 57 L 313 57 L 313 375 L 12.273438 375 Z M 12.273438 57 " clip-rule="nonzero"/></clipPath><clipPath id="3319b37495"><path d="M 62 57 L 362.523438 57 L 362.523438 375 L 62 375 Z M 62 57 " clip-rule="nonzero"/></clipPath><clipPath id="31221f7d91"><path d="M 12.273438 0 L 362.523438 0 L 362.523438 231 L 12.273438 231 Z M 12.273438 0 " clip-rule="nonzero"/></clipPath></defs><g clip-path="url(#390cb8aade)"><g clip-path="url(#44d8d5bc89)"><path fill="#efedfd" d="M 131.25 131.25 L 243.75 131.25 L 243.75 243.75 L 131.25 243.75 Z M 131.25 131.25 " fill-opacity="1" fill-rule="nonzero"/></g></g><g clip-path="url(#bde5399578)"><path fill="#e55b2d" d="M 212.386719 57.695312 L 212.386719 115.402344 L 312.265625 173.097656 L 312.265625 115.402344 Z M 12.617188 115.402344 L 12.617188 173.097656 L 62.554688 201.941406 L 62.554688 144.253906 Z M 162.433594 144.253906 L 112.496094 173.097656 L 112.496094 346.195312 L 162.433594 375.054688 L 162.433594 259.648438 L 212.386719 288.503906 L 212.386719 230.800781 L 162.433594 201.941406 Z M 162.433594 144.253906 " fill-opacity="1" fill-rule="nonzero"/></g><g clip-path="url(#3319b37495)"><path fill="#ed8e24" d="M 212.386719 57.695312 L 62.554688 144.253906 L 62.554688 201.941406 L 162.433594 144.253906 L 162.433594 201.941406 L 212.386719 173.097656 Z M 362.207031 86.550781 L 312.265625 115.402344 L 312.265625 173.097656 L 362.207031 144.253906 Z M 262.328125 201.941406 L 212.386719 230.800781 L 212.386719 288.503906 L 262.328125 259.648438 Z M 212.386719 288.503906 L 162.433594 259.648438 L 162.433594 375.054688 L 212.386719 346.195312 Z M 212.386719 288.503906 " fill-opacity="1" fill-rule="nonzero"/></g><g clip-path="url(#31221f7d91)"><path fill="#f8bf3c" d="M 212.386719 0 L 12.617188 115.402344 L 62.554688 144.253906 L 212.386719 57.695312 L 312.265625 115.402344 L 362.207031 86.550781 Z M 212.386719 173.097656 L 162.433594 201.941406 L 212.386719 230.800781 L 262.328125 201.941406 Z M 212.386719 173.097656 " fill-opacity="1" fill-rule="nonzero"/></g></svg>