<svg xmlns="http://www.w3.org/2000/svg" xmlns:xlink="http://www.w3.org/1999/xlink" width="500" zoomAndPan="magnify" viewBox="0 0 375 374.999991" height="500" preserveAspectRatio="xMidYMid meet" version="1.0"><defs><clipPath id="4eadec60b5"><path d="M 0.0976562 95.5625 L 171.085938 95.5625 L 171.085938 266.367188 L 0.0976562 266.367188 Z M 0.0976562 95.5625 " clip-rule="nonzero"/></clipPath></defs><path fill="#000000" d="M 252.558594 104.222656 C 272.738281 102.605469 290.5625 96.425781 306.976562 101.285156 C 312.40625 102.890625 330.878906 114.070312 337.855469 118.917969 C 354.988281 130.796875 374.902344 149.617188 374.621094 177.691406 C 373.824219 258.0625 262.734375 292.78125 217.269531 230.582031 C 187.550781 189.929688 209.671875 125.617188 252.558594 104.222656 M 212.859375 168.871094 C 259.605469 172.34375 315.714844 173.691406 365.800781 164.464844 C 346.90625 95.605469 220.984375 82.03125 212.859375 168.871094 M 327.558594 177.691406 C 331.121094 228.09375 242.425781 233.039062 246.683594 179.15625 C 237.777344 177.03125 220.214844 176.558594 211.382812 179.15625 C 210.136719 229.660156 247.488281 261.972656 293.742188 257.03125 C 333.707031 252.757812 366.609375 215.671875 365.800781 174.746094 C 351.757812 177.988281 343.800781 175.796875 327.558594 177.691406 M 254.03125 179.15625 C 249.003906 225.410156 326.371094 219.425781 317.269531 177.691406 C 292.125 178.285156 280.808594 178.621094 254.03125 179.15625 " fill-opacity="1" fill-rule="evenodd"/><path fill="#ffffff" d="M 365.800781 164.464844 C 315.710938 173.691406 259.605469 172.34375 212.859375 168.871094 C 220.984375 82.03125 346.90625 95.605469 365.800781 164.464844 " fill-opacity="1" fill-rule="evenodd"/><path fill="#ffffff" d="M 365.800781 174.746094 C 366.609375 215.671875 333.707031 252.757812 293.742188 257.03125 C 247.488281 261.972656 210.136719 229.660156 211.382812 179.15625 C 220.214844 176.558594 237.777344 177.03125 246.683594 179.15625 C 242.425781 233.039062 331.121094 228.09375 327.558594 177.691406 C 343.800781 175.796875 351.757812 177.988281 365.800781 174.746094 " fill-opacity="1" fill-rule="evenodd"/><path fill="#000000" d="M 317.269531 177.691406 C 326.371094 219.425781 249.003906 225.410156 254.035156 179.160156 C 280.808594 178.621094 292.125 178.285156 317.269531 177.691406 " fill-opacity="1" fill-rule="evenodd"/><g clip-path="url(#4eadec60b5)"><path fill="#000000" d="M 89.882812 97.386719 C 90.726562 97.332031 92.191406 95.980469 92.9375 95.867188 C 115.425781 92.433594 146.640625 119.023438 155.402344 129.351562 C 196.9375 178.289062 150.019531 265.933594 83.792969 266.367188 C 49.621094 266.585938 17.582031 249.597656 6.089844 220.695312 C -7.53125 186.488281 4.46875 146.046875 18.273438 127.835938 C 33.492188 107.746094 57.171875 99.40625 89.882812 97.386719 M 159.972656 153.714844 C 153.621094 134.300781 114.730469 115.898438 94.460938 109.5625 C 52.125 96.34375 14.75 146.113281 10.648438 181.113281 C 64.253906 180.511719 117.25 183.402344 161.5 176.546875 C 160.90625 170.023438 162.582031 161.675781 159.972656 153.714844 M 124.929688 187.203125 C 121.132812 234.402344 50.5625 233.589844 42.652344 188.726562 C 31.820312 189.578125 17.480469 186.917969 9.128906 190.25 C 14.273438 283.226562 161.699219 275.773438 159.972656 184.160156 C 151.425781 183.082031 138.703125 188.667969 124.929688 187.203125 M 115.789062 188.726562 C 90.726562 185.726562 82.109375 190.3125 51.792969 187.203125 C 53.976562 224.414062 113.136719 225.71875 115.789062 188.726562 " fill-opacity="1" fill-rule="evenodd"/></g><path fill="#ffffff" d="M 161.5 176.546875 C 117.25 183.402344 64.253906 180.511719 10.648438 181.113281 C 14.75 146.113281 52.125 96.34375 94.460938 109.5625 C 114.730469 115.898438 153.625 134.300781 159.972656 153.710938 C 162.585938 161.675781 160.910156 170.023438 161.5 176.546875 " fill-opacity="1" fill-rule="evenodd"/><path fill="#ffffff" d="M 159.972656 184.160156 C 161.699219 275.773438 14.273438 283.226562 9.128906 190.25 C 17.480469 186.917969 31.820312 189.578125 42.652344 188.726562 C 50.5625 233.589844 121.132812 234.402344 124.929688 187.203125 C 138.703125 188.667969 151.425781 183.078125 159.972656 184.160156 " fill-opacity="1" fill-rule="evenodd"/><path fill="#000000" d="M 51.792969 187.203125 C 82.109375 190.3125 90.726562 185.726562 115.789062 188.726562 C 113.140625 225.71875 53.980469 224.414062 51.792969 187.203125 " fill-opacity="1" fill-rule="evenodd"/></svg>